<?xml version="1.0" encoding="UTF-8"?>
<svg width="300" height="300" viewBox="0 0 300 300" xmlns="http://www.w3.org/2000/svg">
  <defs>
    <style>
      .logo-bg { fill: #2DD4BF; }
      .logo-text, .logo-stars { fill: #FAFAFA; }
      .logo-stripes { fill: #FAFAFA; opacity: 0.9; }
      .logo-car { fill: #064E3B; }
    </style>
  </defs>
  <path class="logo-bg" d="M20,0 H280 L300,20 V280 L280,300 H20 L0,280 V20 L20,0 Z"/>
  <g class="logo-stars" transform="translate(30,20)">
    <path d="M20,0 L25,15 L40,20 L25,25 L20,40 L15,25 L0,20 L15,15 Z"/>
    <path d="M70,0 L75,15 L90,20 L75,25 L70,40 L65,25 L50,20 L65,15 Z"/>
    <path d="M120,0 L125,15 L140,20 L125,25 L120,40 L115,25 L100,20 L115,15 Z"/>
    <path d="M170,0 L175,15 L190,20 L175,25 L170,40 L165,25 L150,20 L165,15 Z"/>
    <path d="M220,0 L225,15 L240,20 L225,25 L220,40 L215,25 L200,20 L215,15 Z"/>
  </g>
  <text class="logo-text" x="50%" y="45%" text-anchor="middle" style="font-size: 48px; font-weight: bold;">BEST CAR</text>
  <path class="logo-car" d="M60,150 H240 V220 H60 Z" transform="translate(0,20)"/>
  <g class="logo-stripes" transform="translate(30,200)">
    <rect x="0" y="0" width="20" height="60"/>
    <rect x="40" y="0" width="20" height="60"/>
    <rect x="80" y="0" width="20" height="60"/>
    <rect x="120" y="0" width="20" height="60"/>
    <rect x="160" y="0" width="20" height="60"/>
    <rect x="200" y="0" width="20" height="60"/>
  </g>
</svg> 